<svg width="24" height="24" viewBox="0 0 24 24" fill="none" xmlns="http://www.w3.org/2000/svg">
<g id="Left">
<path id="Vector" d="M3.48469 12.2653L10.2347 19.0153C10.3051 19.0856 10.4005 19.1252 10.5 19.1252C10.5995 19.1252 10.6949 19.0856 10.7653 19.0153C10.8357 18.9449 10.8752 18.8495 10.8752 18.75C10.8752 18.6505 10.8357 18.555 10.7653 18.4847L4.65563 12.375H20.25C20.3495 12.375 20.4448 12.3355 20.5152 12.2651C20.5855 12.1948 20.625 12.0994 20.625 12C20.625 11.9005 20.5855 11.8051 20.5152 11.7348C20.4448 11.6645 20.3495 11.625 20.25 11.625H4.65563L10.7653 5.51528C10.8357 5.44491 10.8752 5.34948 10.8752 5.24996C10.8752 5.15045 10.8357 5.05502 10.7653 4.98465C10.6949 4.91429 10.5995 4.87476 10.5 4.87476C10.4005 4.87476 10.3051 4.91429 10.2347 4.98465L3.48469 11.7347C3.44982 11.7695 3.42216 11.8108 3.40329 11.8564C3.38442 11.9019 3.37471 11.9507 3.37471 12C3.37471 12.0492 3.38442 12.098 3.40329 12.1436C3.42216 12.1891 3.44982 12.2304 3.48469 12.2653Z" fill="white" fill-opacity="0.48"/>
</g>
</svg>
