<svg width="24" height="24" viewBox="0 0 24 24" fill="none" xmlns="http://www.w3.org/2000/svg">
<g id="vuesax/bulk/quote-up">
<g id="quote-up">
<path id="Vector" d="M8.09003 11.63H3.40002C3.48002 6.95997 4.40002 6.18996 7.27002 4.48996C7.60002 4.28996 7.71001 3.86996 7.51001 3.52996C7.31001 3.19996 6.88999 3.08997 6.54999 3.28997C3.16999 5.28997 1.98999 6.50995 1.98999 12.33V17.72C1.98999 19.43 3.38002 20.81 5.08002 20.81H8.08002C9.84002 20.81 11.17 19.48 11.17 17.72V14.72C11.18 12.96 9.85003 11.63 8.09003 11.63Z" fill="#B8EC4C"/>
<path id="Vector_2" opacity="0.4" d="M18.91 11.63H14.22C14.3 6.95997 15.22 6.18996 18.09 4.48996C18.42 4.28996 18.53 3.86996 18.33 3.52996C18.13 3.19996 17.71 3.08997 17.37 3.28997C13.99 5.28997 12.81 6.50995 12.81 12.33V17.72C12.81 19.43 14.2 20.81 15.9 20.81H18.9C20.66 20.81 21.99 19.48 21.99 17.72V14.72C22 12.96 20.67 11.63 18.91 11.63Z" fill="#B8EC4C"/>
</g>
</g>
</svg>
